<svg width="50" height="50" viewBox="0 0 50 50" fill="none" xmlns="http://www.w3.org/2000/svg">
<path fill-rule="evenodd" clip-rule="evenodd" d="M9.375 0L5.20834 14.2857H0V25H3.125V50H9.375V42.8571H40.625V50H46.875V25H50V14.2857H44.7916L40.625 0H9.375ZM12.5 28.5714C10.7741 28.5714 9.375 30.1704 9.375 32.1429C9.375 34.1154 10.7741 35.7143 12.5 35.7143C14.2259 35.7143 15.625 34.1154 15.625 32.1429C15.625 30.1704 14.2259 28.5714 12.5 28.5714ZM36.1203 7.14286H13.8798L9.71309 21.4286H40.2869L36.1203 7.14286ZM37.5 28.5714C35.7741 28.5714 34.375 30.1704 34.375 32.1429C34.375 34.1154 35.7741 35.7143 37.5 35.7143C39.2259 35.7143 40.625 34.1154 40.625 32.1429C40.625 30.1704 39.2259 28.5714 37.5 28.5714Z" fill="#282D86"/>
</svg>
