<svg width="667" height="667" viewBox="0 0 667 667" fill="none" xmlns="http://www.w3.org/2000/svg">
<path d="M434.133 666.667C475.903 666.667 511.747 664.473 541.693 657.817C572.023 651.077 598.313 639.327 618.82 618.82C639.327 598.313 651.077 572.023 657.817 541.693C664.473 511.747 666.667 475.903 666.667 434.133V333.333C666.667 296.513 636.82 266.667 600 266.667H333.333C296.513 266.667 266.667 296.513 266.667 333.333V600C266.667 636.82 296.513 666.667 333.333 666.667H434.133Z" fill="white"/>
<path d="M0 434.133C0 475.903 2.19467 511.747 8.85067 541.693C15.5907 572.023 27.3403 598.313 47.8477 618.82C68.355 639.327 94.6443 651.077 124.972 657.817C127.876 658.46 130.795 659.067 133.726 659.633C169.876 666.617 200 636.02 200 599.2V333.333C200 296.513 170.152 266.667 133.333 266.667H66.6667C29.8477 266.667 0 296.513 0 333.333V434.133Z" fill="white"/>
<path d="M232.532 0C190.761 0 154.92 2.19467 124.971 8.85067C94.6433 15.5907 68.354 27.3403 47.8466 47.8477C27.3393 68.355 15.5897 94.6443 8.84965 124.972C8.29632 127.462 7.77565 129.96 7.28665 132.466C0.140652 169.089 31.2966 200 68.61 200H599.2C636.02 200 666.617 169.876 659.633 133.726C659.067 130.795 658.46 127.876 657.817 124.972C651.073 94.6443 639.327 68.355 618.817 47.8477C598.31 27.3403 572.02 15.5907 541.693 8.85067C511.743 2.19467 475.903 0 434.133 0H232.532Z" fill="white"/>
</svg>
