<svg width="1211" height="1842" viewBox="0 0 1211 1842" fill="none" xmlns="http://www.w3.org/2000/svg">
<path d="M868.474 344.795L743 309.621C742.674 312.842 741.953 316.063 741.243 319.406C779.647 327.891 819.296 335.443 858.224 342.751C861.598 343.495 865.1 344.117 868.474 344.795Z" fill="#282D87"/>
<path d="M664.295 351.236C644.447 342.318 621.609 338.908 599.877 341.696C588.255 343.129 576.772 346.472 566.068 351.236C565.161 352.603 564.184 353.902 563.276 355.135C583.461 357.678 602.925 365.974 618.108 379.113C620.109 380.724 621.284 383.445 620.888 385.988C620.632 388.52 619.143 390.997 616.805 392.296C599.225 402.825 579.238 409.456 558.867 412.243C580.343 418.929 602.925 422.15 625.437 421.406C643.086 420.729 660.665 417.819 678.046 414.476C672.078 406.912 664.877 400.104 656.838 394.473C653.789 392.296 652.486 388.776 653.522 385.299C654.697 381.956 657.873 379.546 661.631 379.413L697.964 377.747C688.564 363.809 673.509 355.39 664.295 351.236Z" fill="#282D87"/>
<path d="M522.662 396.206C547.908 398.927 573.665 394.651 596.364 384.122C582.74 375.637 566.65 371.061 550.432 370.928C542.067 380.224 532.853 388.642 522.662 396.206Z" fill="#282D87"/>
<path d="M346.452 474.361L354.305 473.683C395.699 444.574 428.914 406.235 453.113 359.722C426.262 374.837 401.213 393.107 378.632 413.732C369.359 437.199 353.921 458.39 334.713 475.483C338.541 475.05 342.496 474.739 346.452 474.361Z" fill="#282D87"/>
<path d="M466.027 371.861C462.979 377.436 459.989 383.012 456.685 388.332C470.378 387.898 484.002 389.331 497.172 392.918C516.438 381.212 533.307 366.408 546.605 348.949C525.524 348.393 504.175 352.603 485.165 361.266C478.487 364.186 472.065 367.84 466.027 371.861Z" fill="#282D87"/>
<path d="M825.718 487.988C855.688 513.444 890.078 534.19 927.051 549.062C938.93 550.117 950.471 552.893 961.569 557.114C951.843 541.065 943.723 524.472 936.137 508.368C930.425 505.025 924.131 501.993 917.127 499.761C899.746 494.185 880.736 492.508 862.435 491.087L825.718 487.988Z" fill="#282D87"/>
<path d="M292.737 362.143C302.277 362.076 312.201 357.678 321.741 353.28C333.735 347.705 345.812 342.751 358.528 343.495C364.88 343.862 370.65 345.783 376.107 347.705C381.365 349.57 386.356 351.359 390.708 351.114C394.14 351.048 398.165 349.815 402.318 348.449C406.076 347.216 410.032 346.039 414.383 345.472C430.217 343.251 444.55 340.774 458.116 337.864C458.569 337.676 459.151 337.431 459.605 337.12C458.755 332.411 458.244 327.769 457.848 323.06C435.929 336.31 408.996 341.885 382.983 337.676C379.806 337.12 376.561 336.432 373.315 335.688C365.729 334.077 358.586 332.533 351.71 333.211C341.333 334.21 331.921 340.086 321.869 346.216C319.274 347.771 316.866 349.315 314.272 350.925C304.418 356.69 295.075 360.155 286.373 361.143C288.514 361.832 290.596 362.143 292.737 362.143Z" fill="#282D87"/>
<path d="M131.768 877.064C131.768 891.558 131 906.052 129.313 920.49C141.703 902.586 147.404 883.572 145.659 865.303C141.11 869.079 136.444 872.977 131.768 877.064Z" fill="#282D87"/>
<path d="M457.394 305.59C457.534 301.936 457.72 298.348 458.116 294.694C409.45 294.383 358.26 296.482 308.373 298.593C304.871 298.715 301.497 298.904 297.996 299.026L457.069 305.834C457.138 305.712 457.266 305.712 457.394 305.59Z" fill="#282D87"/>
<path d="M757.263 359.722C781.462 406.235 814.747 444.574 856.141 473.683L863.924 474.361C867.752 474.739 871.777 475.05 875.733 475.483C856.339 458.39 841.086 437.199 831.744 413.732C809.174 393.107 784.196 374.837 757.263 359.722Z" fill="#282D87"/>
<path d="M712.239 393.785L685.969 395.029L717.556 414.165C729.434 421.406 741.697 428.847 754.541 434.112C767.257 439.065 780.95 441.853 794.772 442.775C777.507 424.261 762.452 403.692 749.55 381.213C741.243 378.858 732.739 377.314 723.99 377.07C721.907 377.003 719.836 377.314 717.696 377.436C718.533 379.113 719.313 380.846 720.022 382.634C720.93 385.111 720.616 387.899 718.987 390.131C717.498 392.297 714.903 393.663 712.239 393.785Z" fill="#282D87"/>
<path d="M65.7909 977.709C60.2763 1001.12 60.1483 1023.61 65.0812 1043.3C67.1521 1045.97 69.1648 1048.63 71.2356 1051.29C100.763 994.991 116.004 931.196 114.386 868.268L105.626 884.628C89.792 914.348 73.3181 945.135 65.7909 977.709Z" fill="#282D87"/>
<path d="M1112.67 677.762C1112.22 675.218 1111.64 672.686 1111.06 670.076C1106.25 662.213 1101.12 652.306 1096.26 642.833C1094.19 638.923 1092.17 635.025 1090.09 631.249C1088.35 632.615 1087.04 634.036 1085.88 635.836C1083.22 639.923 1078.81 642.399 1074.07 643.266C1071.15 651.929 1069.66 660.98 1069.59 670.076C1078.42 682.593 1085.62 696.276 1090.55 710.648C1096 698.697 1103.53 687.669 1112.67 677.762Z" fill="#282D87"/>
<path d="M1055.64 731.338C1056.88 735.237 1054.99 739.39 1051.11 741.123C1047.41 743.044 1042.73 741.923 1040.2 738.702C1033.06 729.35 1024.77 721.554 1015.55 715.412C1023.99 760.381 1048.06 801.563 1083.41 831.239C1084.58 830.184 1086.01 829.44 1087.62 829.129C1091.45 828.452 1095.35 830.184 1097.04 833.527L1104.69 847.899C1105.86 848.821 1107.03 849.698 1108.14 850.564C1110.73 831.239 1116.88 813.269 1126.68 795.933C1128.69 791.223 1130.78 786.581 1132.92 781.994C1133.11 781.561 1133.24 781.128 1133.43 780.639C1132.52 776.852 1132.97 772.643 1135.12 768.989C1142 756.849 1146.74 743.044 1149.66 728.362C1151.53 709.848 1149.2 691.011 1142.77 673.674C1117.28 692.377 1101.12 719.066 1098.01 748.364C1097.56 752.707 1093.21 755.861 1089.18 755.928C1084.58 755.861 1080.88 752.518 1080.49 748.175C1078.68 722.786 1068.81 697.397 1053.12 676.34C1049.02 695.043 1049.87 712.88 1055.64 731.338Z" fill="#282D87"/>
<path d="M1145.24 1043.3C1150.11 1023.61 1150.11 1001.12 1144.66 977.709C1137 945.135 1120.53 914.348 1104.69 884.628L1095.93 868.268C1094.37 931.196 1109.68 994.991 1139.21 1051.41C1141.15 1048.63 1143.17 1045.97 1145.24 1043.3Z" fill="#282D87"/>
<path d="M996.542 577.672C997.251 578.294 998.101 578.782 998.74 579.471C998.159 567.576 999.136 555.559 1001.4 543.853C1000.37 541.632 999.194 539.522 998.101 537.289C993.04 535.49 989.084 531.592 987.583 526.516C985.71 519.83 983.174 513.255 980.324 506.758C963.582 480.747 943.467 456.591 920.897 435.1L946.969 490.776C960.534 519.575 975.321 551.228 996.542 577.672Z" fill="#282D87"/>
<path d="M925.888 565.599C952.937 609.202 990.631 646.73 1035.73 674.785C1037.03 668.532 1038.52 662.213 1040.73 655.837C1041.76 652.983 1044.23 650.817 1047.28 650.262C1049.15 649.951 1050.91 650.262 1052.52 650.94C1052.4 647.286 1052.14 643.51 1051.94 639.922C1051.49 627.039 1050.91 613.778 1049.35 600.961C1045.85 570.919 1037.03 547.329 1022.95 530.603C1014.83 554.448 1013.79 580.27 1020.22 604.615C1021.26 608.514 1019.18 612.667 1015.35 614.333C1011.4 616.01 1006.79 614.644 1004.45 611.301C986.42 585.168 957.16 568.442 925.888 565.599Z" fill="#282D87"/>
<path d="M287.746 483.846C290.724 482.968 293.9 482.169 297.018 481.424C326.208 465.009 349.499 439.187 361.762 409.145C337.249 423.394 315.179 441.353 296.111 461.788L285.337 484.712C286.187 484.401 286.896 484.212 287.746 483.846Z" fill="#282D87"/>
<path d="M447.215 438.066C470.436 436.333 493.216 428.659 512.54 416.02C491.785 406.235 468.098 402.825 445.272 406.046C437.675 416.83 429.496 426.926 420.875 436.766C430.799 438.632 440.467 438.565 447.215 438.066Z" fill="#282D87"/>
<path d="M248.877 557.114C259.848 552.893 271.458 550.117 283.395 548.995C320.38 534.068 354.759 513.444 384.74 487.988L348.011 491.087C329.582 492.508 310.584 494.185 293.191 499.761C286.187 501.993 280.021 505.025 274.309 508.368C266.723 524.472 258.417 541.065 248.877 557.114Z" fill="#282D87"/>
<path d="M1064.66 865.303C1063.04 883.572 1068.62 902.586 1081.15 920.49C1079.46 906.052 1078.68 891.558 1078.68 877.064C1074 872.977 1069.34 869.079 1064.66 865.303Z" fill="#282D87"/>
<path d="M566.325 1300.39C562.567 1300.39 559.193 1298.04 558.03 1294.57C556.529 1290.12 550.107 1286.78 544.267 1287.02C535.378 1287.33 528.63 1289.43 524.093 1293.46C521.045 1296.25 516.31 1296.49 513.006 1294.02C510.144 1292.04 505.665 1289.55 500.999 1289.43C497.428 1289.37 494.124 1290.8 492.623 1292.91C491.46 1294.69 491.785 1297.24 492.821 1298.17C495.543 1300.39 499.243 1301.26 502.291 1300.46C504.501 1299.84 506.968 1300.03 508.98 1301.14C511.051 1302.26 512.413 1304.05 513.134 1306.16C513.972 1308.94 516.636 1311.85 520.266 1313.65C523.639 1315.32 527.141 1315.82 529.806 1314.95C532.272 1314.14 534.925 1314.52 537.205 1315.75C539.345 1317.05 540.893 1319.28 541.219 1321.76C541.614 1323.99 543.813 1326.23 546.151 1326.54C552.445 1327.4 554.202 1326.54 554.33 1326.54C555.622 1323.75 558.158 1322.19 561.264 1321.95C561.532 1321.95 561.66 1321.95 561.916 1321.95C564.836 1321.95 567.372 1323.63 568.989 1325.97C571.781 1330.07 577.878 1332.11 582.741 1330.75C587.673 1329.32 591.373 1324.43 591.373 1319.54C591.373 1316.44 589.035 1312.53 585.207 1308.82C579.82 1303.8 572.305 1300.39 566.779 1300.39C566.651 1300.39 566.523 1300.39 566.325 1300.39Z" fill="#282D87"/>
<path d="M877.688 1275C852.384 1267.75 826.812 1260.26 801.322 1252.83C775.692 1245.39 749.876 1237.91 724.443 1230.66C722.943 1230.22 721.651 1229.48 720.476 1228.37C699.593 1206.93 673.056 1190.96 643.796 1182.17C626.926 1177.02 612.651 1175.35 599.679 1177.15C584.625 1179 571.653 1185.94 564.323 1195.85C560.81 1200.37 557.832 1207.62 560.624 1212.94C563.544 1218.46 572.758 1220.07 579.506 1218.2C588.453 1215.67 597.015 1210.96 604.67 1204.09C607.719 1201.42 612.268 1201.06 615.641 1203.28C648.787 1225.34 680.513 1249.74 709.971 1275.87C714.578 1280.02 720.744 1285.46 723.99 1293.03C725.281 1295.82 725.863 1298.85 725.991 1301.57L912.194 1373.85C917.581 1366.42 922.968 1358.68 927.959 1350.94C939.639 1332.79 950.285 1313.96 959.813 1294.45C948.4 1291.6 937.045 1289 926.214 1286.71C910.577 1283.24 894.487 1279.77 877.688 1275Z" fill="#282D87"/>
<path d="M913.23 481.424C916.418 482.169 919.594 482.968 922.712 483.846C923.421 484.212 924.271 484.401 924.98 484.712L914.207 461.788C895.197 441.353 873.081 423.394 848.684 409.145C860.946 439.187 884.238 465.009 913.23 481.424Z" fill="#282D87"/>
<path d="M719.115 1319.41C714.194 1323.75 708.283 1324.98 702.641 1324.98C700.302 1324.98 698.232 1324.74 696.091 1324.43C694.858 1326.66 693.171 1328.63 690.96 1330.31C686.877 1333.47 681.746 1335.14 676.627 1335.14C675.266 1335.14 673.835 1334.77 672.404 1334.59C668.576 1338.67 663.457 1341.58 657.745 1342.57C655.988 1342.76 654.243 1342.88 652.614 1342.88C646.192 1342.88 640.224 1341.21 635.233 1339.35C633.418 1341.21 631.277 1342.76 628.811 1343.87C629.393 1344.93 629.649 1346.04 629.649 1347.22C629.777 1373.73 629.974 1400.6 630.23 1427.42C630.498 1454.25 630.556 1481.18 630.684 1507.57C630.684 1510.54 629.067 1513.33 626.403 1514.82C621.028 1517.79 614.99 1519.27 608.765 1519.27C599.225 1519.27 589.616 1515.69 582.682 1508.99C581.123 1507.57 580.215 1505.59 580.215 1503.41L573.979 1347.34C569.384 1346.47 564.905 1344.68 561.077 1341.9C556.668 1343.68 550.7 1344.12 543.428 1343.01C536.553 1342.02 530.387 1337.81 526.885 1332.11C522.022 1331.98 516.891 1330.74 512.086 1328.46C506.711 1325.72 502.43 1321.83 499.51 1317.43C493.076 1317.31 486.526 1314.95 481.407 1310.74C478.615 1308.39 476.672 1305.41 475.497 1302C416.326 1330.43 354.758 1355.39 292.213 1376.27C324.463 1420.48 361.902 1457.47 403.877 1486.08C481.663 1539.15 570.291 1557.98 659.944 1540.64C752.528 1522.62 838.62 1467.69 901.747 1387.79L720.616 1317.62C720.162 1318.17 719.836 1318.97 719.115 1319.41Z" fill="#282D87"/>
<path d="M633.477 754.495C633.477 761.314 633.418 773.076 633.29 788.691C646.46 787.57 659.816 786.148 672.346 782.683C680.513 780.45 687.715 776.73 694.59 771.221L644.831 757.538C641.074 756.483 637.246 755.495 633.477 754.495Z" fill="#282D87"/>
<path d="M563.148 612.79C554.062 621.708 544.72 630.815 537.972 641.155C529.933 653.539 526.431 663.89 527.408 672.864C527.722 676.895 525.128 680.549 521.044 681.66C513.971 683.704 506.257 687.613 499.766 692.378C496.915 715.234 496.59 738.269 498.66 761.192C523.057 747.376 552.317 732.205 584.043 730.772C606.881 729.784 629.649 736.036 649.566 741.49L713.542 759.082C713.728 758.649 714.194 758.149 714.45 757.538C715.357 754.873 715.229 751.396 715.031 747.687C714.322 733.56 712.565 719.322 709.901 705.505C708.807 700.619 707.76 695.843 705.561 692.133C703.676 689.157 700.826 687.047 698.36 686.802C693.555 686.491 690.053 682.471 690.309 678.006C692.845 636.568 677.337 592.41 648.915 559.768C641.329 551.106 634.454 545.097 627.182 540.821C618.945 535.923 609.801 533.513 601.75 534.069C592.408 534.757 583.461 538.966 572.944 545.097C554.202 556.114 536.483 568.876 520.137 583.181C517.543 585.413 515.274 587.523 513.971 589.811C513.005 591.421 512.935 592.976 513.261 593.587C514.425 595.942 514.297 598.607 513.133 600.962C511.83 603.194 509.631 604.86 507.095 605.293C497.299 607.215 489.446 612.235 485.491 619.232C483.873 622.141 483.152 624.685 483.606 626.351C484.188 628.339 487.108 630.005 489.9 630.127C493.402 630.26 497.427 628.705 500.999 625.673C504.954 622.452 508.2 617.988 511.632 613.345C513.715 610.435 517.473 609.069 521.044 610.002C523.383 610.558 525.849 610.991 528.444 611.424C531.294 611.99 534.214 612.546 536.937 613.345C537.39 613.412 537.786 613.656 538.112 613.901C542.195 609.447 546.477 605.293 550.7 601.206L574.957 577.483C578.331 574.262 583.845 574.14 587.289 577.361C590.721 580.582 590.791 585.968 587.417 589.189L563.148 612.79Z" fill="#282D87"/>
<mask id="mask0_267_355" style="mask-type:luminance" maskUnits="userSpaceOnUse" x="1161" y="849" width="50" height="172">
<path d="M1161.32 849.776H1210.56V1020.37H1161.32V849.776Z" fill="white"/>
</mask>
<g mask="url(#mask0_267_355)">
<path d="M1163.41 982.729C1165.61 994.991 1166.59 1007.13 1166.26 1018.71C1170.67 1013.69 1175.35 1008.68 1180.21 1003.48C1181.84 1001.74 1183.98 1000.75 1186.18 1000.63C1186.63 999.633 1186.9 998.645 1187.48 997.778C1197.15 982.052 1204.02 964.582 1208.82 946.556C1209.02 943.646 1209.41 940.737 1209.6 937.893C1211.03 911.938 1207.85 884.317 1199.67 852.353L1169.51 959.44C1167.37 967.125 1165.29 974.922 1163.41 982.729Z" fill="#282D87"/>
</g>
<path d="M1124.03 868.523C1123.9 874.099 1124.16 879.541 1124.48 885.116C1135.57 905.685 1146.41 926.987 1154.32 949.222L1177.42 867.035C1174.44 841.457 1163.41 816.49 1146.09 797.176C1131.94 819.411 1124.81 842.446 1124.03 868.523Z" fill="#282D87"/>
<path d="M589.488 1162.34C592.083 1161.66 594.549 1160.85 597.213 1160.54C602.6 1159.86 608.173 1159.74 613.827 1159.99C613.885 1142.96 614.339 1049.31 614.99 955.475C615.374 860.283 616.026 765.279 616.026 750.475C608.045 748.798 600.005 747.931 592.083 747.687V752.141C591.757 806.461 589.884 1107.22 589.488 1162.34Z" fill="#282D87"/>
<path d="M599.551 1339.97C597.143 1342.26 594.42 1343.99 591.5 1345.36L597.469 1499.21C602.145 1502.3 607.916 1503.36 613.175 1502.12C613.105 1477.47 612.849 1452.45 612.721 1427.55C612.523 1400.67 612.267 1373.73 612.139 1347.34C612.139 1346.78 612.395 1346.35 612.523 1345.79C608.044 1344.93 603.635 1342.88 599.551 1339.97Z" fill="#282D87"/>
<path d="M142.739 1250.29C137.282 1256.98 132.035 1263.3 127.358 1269.86C131 1275.68 134.432 1281.75 137.48 1288.56C143.774 1302.13 148.451 1316.44 152.988 1330.07C155.199 1337 157.398 1343.82 159.864 1350.56C162.458 1357.81 165.379 1364.81 168.427 1371.87C170.835 1358.49 172.382 1345.05 172.126 1331.54C171.673 1302.81 162.133 1273.33 145.205 1247.26C144.356 1248.25 143.576 1249.3 142.739 1250.29Z" fill="#282D87"/>
<path d="M477.707 1284.42C477.835 1284.23 477.905 1283.99 478.033 1283.8C482.826 1276.8 491.913 1272.4 501.511 1272.77C506.839 1272.89 512.412 1274.45 517.67 1277.23C524.674 1272.96 533.435 1270.67 543.684 1270.29C555.493 1269.86 566.522 1275.44 572.037 1284.11C580.797 1285.46 590.139 1290.12 597.469 1296.93C604.798 1303.73 608.893 1311.73 608.893 1319.41C608.893 1321.52 608.568 1323.56 608.172 1325.41C611.942 1328.46 615.897 1330 619.143 1329.57C621.609 1329.32 623.936 1327.09 623.808 1325.73C623.68 1324.3 621.737 1321.76 620.178 1319.97L600.133 1294.69C597.213 1291.04 597.922 1285.78 601.75 1282.99C605.647 1280.2 611.092 1280.89 614.012 1284.54L634.198 1309.81C636.652 1312.96 640.224 1317.62 641.073 1323.63C646.32 1325.54 650.741 1326.66 654.825 1326.1C656.838 1325.73 658.908 1324.43 659.944 1322.88C660.339 1322.32 660.665 1321.64 660.537 1321.08C660.211 1319.84 658.199 1317.86 656.71 1316.44L616.351 1277.23C612.977 1274.01 613.105 1268.63 616.479 1265.41C619.981 1262.19 625.437 1262.31 628.811 1265.53L669.158 1304.73C672.02 1307.52 675.976 1311.3 677.465 1316.87C677.593 1317.31 677.593 1317.74 677.663 1318.17C678.5 1317.98 679.408 1317.86 680.059 1317.31C681.618 1316.06 682.467 1313.53 681.746 1311.61C681.234 1309.93 679.349 1307.83 677.593 1305.84C670.845 1298.17 663.911 1290.48 657.163 1282.68C653.068 1277.98 648.915 1273.46 644.831 1268.75C641.911 1265.53 636.396 1260.08 644.447 1259.71C666.11 1258.97 678.768 1281.13 690.96 1295C693.555 1297.91 696.731 1301.57 698.418 1306.4C698.557 1306.83 698.557 1307.4 698.685 1307.95C701.989 1308.39 705.689 1308.63 707.446 1307.02C708.935 1305.72 709.191 1302.38 707.9 1299.47C706.143 1295.56 702.385 1292.04 698.104 1288.13C670.845 1263.97 641.655 1241.25 611.22 1220.75C602.925 1227 593.967 1231.59 584.497 1234.25C570.873 1238.03 552.317 1234.55 544.987 1220.44C538.693 1208.54 543.428 1194.92 549.978 1186.13C550.7 1185.25 551.607 1184.58 552.317 1183.71C535.191 1183.03 515.786 1190.15 504.629 1202.29C503.337 1203.66 501.708 1204.52 499.963 1204.96L228.901 1262.86C243.362 1297.36 260.627 1329.88 280.8 1359.91C281.254 1360.6 281.778 1361.28 282.231 1362.09C347.103 1340.53 410.951 1314.64 472.193 1285.03C473.938 1284.11 475.823 1284.11 477.707 1284.42Z" fill="#282D87"/>
<path d="M568.407 1169.21C568.733 1169.34 568.989 1169.53 569.384 1169.65C570.152 1169.21 571.129 1168.9 572.037 1168.35C572.037 1155.97 572.491 1093.54 572.944 1020.01C551.863 1019.39 459.279 1019.7 376.433 1019.89C320.24 1020.14 274.053 1020.26 240.116 1020.26C208.983 1020.26 188.216 1020.14 178.874 1019.89C180.363 1099.29 195.546 1176.77 222.607 1247.13L493.402 1189.16C512.086 1170.89 543.685 1162.34 568.407 1169.21Z" fill="#282D87"/>
<path d="M642.691 1618.31L639.771 1619.92C631.138 1624.38 622.32 1629.03 611.942 1630.82C602.018 1632.49 589.034 1632.25 577.552 1627.91C578.459 1629.39 579.506 1630.95 580.797 1632.61C584.753 1637.63 589.488 1641.84 594.875 1645.38C599.098 1644.13 603.507 1643.27 608.172 1643.27C611.36 1643.14 614.339 1643.4 617.259 1643.95L642.435 1620.6C643.668 1619.49 645.029 1618.24 645.867 1617.01C645.029 1617.32 643.994 1617.81 642.691 1618.31Z" fill="#282D87"/>
<path d="M698.36 1641.53C703.548 1642.03 708.935 1641.84 714.194 1641.29C715.101 1640.48 716.195 1639.74 717.37 1639.37C764.604 1623.88 802.031 1582.95 813.328 1536.61L715.613 1590.5C720.476 1598.18 721.907 1608.21 718.731 1617.69C715.613 1626.67 708.481 1634.78 698.36 1641.53Z" fill="#282D87"/>
<path d="M649.567 1647.61C653.662 1643.64 658.909 1640.73 664.621 1639.49C664.749 1639.49 664.947 1639.49 665.203 1639.49C666.762 1638.69 668.379 1637.95 670.008 1637.26C675.453 1634.78 680.583 1632.61 685.388 1629.83C688.89 1627.78 692.776 1625 696.091 1621.6C694.532 1619.8 693.683 1617.44 694.137 1614.9C694.986 1610.01 696.347 1597.62 689.146 1589.82C683.887 1584.18 674.289 1581.39 663.458 1582.51C654.953 1583.38 646.519 1586.17 637.7 1589.08L630.557 1591.37C618.818 1595.21 604.799 1598.62 590.593 1595.95C583.008 1594.53 576.388 1591.37 569.838 1588.52C567.698 1587.47 565.615 1586.6 563.416 1585.74C554.784 1582.08 547.966 1581.03 542.847 1582.51C538.694 1583.75 534.738 1586.85 531.097 1589.82C524.547 1595.21 518.194 1601.22 515.146 1608.34C513.262 1612.8 513.006 1618.68 515.46 1622.9C518.52 1625.81 521.883 1628.16 524.942 1629.83C529.805 1632.61 534.924 1634.78 540.439 1637.26C542.068 1637.95 543.557 1638.69 545.244 1639.49C545.442 1639.49 545.57 1639.49 545.767 1639.49C551.538 1640.73 556.796 1643.64 560.81 1647.61C566.069 1650.95 570.292 1654.54 573.794 1658.45C575.213 1656.84 576.446 1655.16 578.075 1653.86C573.98 1650.52 570.152 1646.86 566.918 1642.71C562.695 1637.39 560.1 1632.61 558.739 1627.73C556.796 1620.79 557.436 1613.91 560.752 1608.21C561.985 1605.86 564.452 1604.19 567.244 1603.88C570.024 1603.51 572.817 1604.56 574.829 1606.54C582.682 1614.66 597.923 1616.2 608.766 1614.34C616.479 1613.11 623.681 1609.2 631.534 1605.18L634.454 1603.63C648.659 1596.39 656.512 1600.97 659.816 1604.32C664.551 1608.89 665.598 1616.02 662.806 1622.46C660.666 1626.92 657.164 1630.14 654.569 1632.61L634.966 1650.95C636.792 1652.32 638.282 1653.74 639.771 1655.28C642.633 1652.49 645.739 1649.96 649.567 1647.61Z" fill="#282D87"/>
<path d="M397.06 1536.61C408.414 1582.95 445.853 1623.88 492.948 1639.37C494.251 1639.74 495.286 1640.48 496.263 1641.29C501.324 1641.84 506.711 1641.97 512.086 1641.53C511.05 1640.86 509.887 1640.18 508.852 1639.37C507.549 1639.06 506.118 1638.5 505.082 1637.51C503.465 1636.02 502.162 1634.22 500.999 1632.49C496.717 1627.91 493.402 1622.9 491.656 1617.69C488.41 1608.21 489.772 1598.18 494.832 1590.5L397.06 1536.61Z" fill="#282D87"/>
<path d="M249.074 1457.47L311.619 1512.9C299.229 1481.06 280.021 1450.65 255.17 1424.14C250.819 1434.67 249.074 1446.13 249.074 1457.47Z" fill="#282D87"/>
<path d="M880.142 598.418C849.265 563.555 813.13 534.257 772.841 511.467C718.533 480.625 661.503 465.131 604.216 465.131C570.152 465.131 536.029 470.585 502.29 481.735C385.449 520.13 279.765 624.929 226.62 755.05C195.22 832.228 179.13 915.714 178.804 1003.23C197.302 1003.91 292.027 1003.54 376.433 1003.23C481.989 1002.85 551.863 1002.8 572.944 1003.35C573.468 936.094 573.921 862.515 574.247 810.859C573.665 810.926 573.212 810.926 572.758 810.926C544.592 810.926 516.891 800.83 491.657 781.439C491.459 781.561 491.203 781.561 490.935 781.561C486.654 781.561 482.826 778.462 482.314 774.197C478.743 745.143 478.871 715.845 482.826 686.924C483.024 684.881 484.188 683.026 485.874 681.66C492.82 675.907 501.325 671.009 509.759 667.788C510.341 656.948 514.75 645.309 523.185 632.359C524.092 630.815 525.128 629.449 526.175 628.15C525.849 628.028 525.395 627.905 525 627.905C524.22 627.717 523.383 627.594 522.603 627.35C519.683 631.248 516.507 635.024 512.54 638.245C505.408 644.187 496.915 647.286 489.12 646.853C478.487 646.42 469.273 639.734 466.736 630.571C465.119 624.685 466.283 618.121 470.11 611.301C475.369 602.072 484.455 594.953 495.682 591.055C495.868 587.956 496.915 584.791 498.591 581.947C501.127 577.361 504.757 573.895 508.328 570.797C525.395 555.87 544.08 542.431 563.869 530.914C574.829 524.472 586.835 518.342 600.517 517.475C612.523 516.609 624.716 519.83 636.396 526.571C645.285 531.836 653.464 538.966 662.282 549.062C692.124 583.18 708.935 628.827 708.027 672.375C713.019 674.663 717.498 678.561 720.616 683.581C724.304 689.712 725.863 696.276 727.038 702.406C729.818 716.967 731.703 731.894 732.482 746.82C732.878 751.963 733.006 757.538 730.865 763.169C727.945 770.721 721.325 776.241 713.868 777.107C713.6 777.107 713.542 777.107 713.414 777.107C702.315 787.88 690.635 795 677.139 798.787C662.55 802.685 647.693 804.296 633.29 805.473C633.022 845.111 632.697 900.354 632.441 955.597C632.313 971.701 632.243 987.871 632.115 1003.54H1024.17C1023.99 969.479 1021.39 935.416 1016.39 902.275C998.426 783.671 951.32 678.561 880.142 598.418Z" fill="#282D87"/>
<path d="M631.277 1161.97C636.978 1162.96 642.946 1164.33 649.113 1166.18C680.513 1175.66 708.935 1192.63 731.703 1215.3C756.425 1222.36 781.334 1229.67 806.44 1236.91C832.012 1244.28 857.572 1251.71 882.748 1258.97C898.897 1263.61 914.079 1266.88 930.041 1270.29C941.978 1272.96 954.368 1275.68 967.014 1279.02C1002.71 1200.61 1022.17 1112.8 1023.99 1020.26H632.115C631.661 1093.04 631.277 1154.1 631.277 1161.97Z" fill="#282D87"/>
<path d="M574.573 752.018V748.486C551.735 751.963 530.061 762.858 510.341 774.064C526.303 784.782 548.233 794.444 574.247 794.133C574.375 775.308 574.503 760.626 574.573 752.018Z" fill="#282D87"/>
<path d="M898.826 1512.77L961.313 1457.47C961.313 1446.13 959.556 1434.67 955.147 1424.14C930.425 1450.65 911.159 1480.94 898.826 1512.77Z" fill="#282D87"/>
<path d="M1065.24 1247.26C1048.19 1273.33 1038.77 1302.81 1038.19 1331.54C1037.94 1345.05 1039.49 1358.49 1041.89 1371.87C1044.94 1364.81 1047.86 1357.81 1050.38 1350.56C1052.85 1343.82 1055.19 1337 1057.4 1330.07C1062.01 1316.44 1066.61 1302.13 1072.84 1288.56C1075.96 1281.75 1079.33 1275.68 1082.96 1269.86C1078.42 1263.3 1073.16 1256.98 1067.65 1250.29C1066.87 1249.3 1066.02 1248.25 1065.24 1247.26Z" fill="#282D87"/>
<path d="M604.613 155.088C606.881 155.21 609.22 155.333 611.674 155.644C611.36 134.464 617.782 113.218 630.557 95.7584C632.569 93.1485 634.582 90.7384 636.653 88.1395C641.33 82.3754 645.867 76.8 648.205 70.5471C651.707 61.1956 650.148 50.5447 648.659 39.2718C648.205 36.4175 647.822 33.6298 647.496 30.72C646.193 19.8247 647.042 10.2177 649.695 2.35449C648.205 3.7761 647.042 5.57532 646.135 7.37454C641.911 15.5488 642.039 26.0109 642.109 36.1732C642.237 48.9898 641.783 61.1956 635.617 72.0354C632.441 77.4886 628.16 81.5091 624.076 85.474C620.109 89.1946 616.351 92.5931 614.595 96.6247C613.175 99.5901 612.652 103.555 612 107.642C611.546 111.552 611.093 115.45 609.801 119.348C606.683 129.266 603.891 138.74 601.425 147.847L602.926 151.068C603.507 152.423 603.961 153.722 604.613 155.088Z" fill="#282D87"/>
<path d="M462.525 1751.6C468.098 1745.28 474.915 1740.01 483.606 1738.28C483.873 1738.04 565.743 1698.09 565.743 1698.09C565.87 1694.92 565.033 1691.58 563.602 1688.79C508.712 1699.07 451.554 1716.67 393.488 1741.12C389.66 1757.73 387.52 1774.2 387.392 1788.81C405.692 1784.98 421.456 1776.67 438.384 1770.67C440.723 1769.74 443.061 1769 445.399 1768.32C453.311 1765.83 457.394 1757.42 462.525 1751.6Z" fill="#282D87"/>
<path d="M299.485 1602.76C325.569 1594.71 353.921 1593.41 380.516 1599.05C370.069 1587.59 358.26 1576.94 346.591 1566.65L224.026 1458.02C237.196 1495.74 259.976 1530.48 289.817 1558.11C292.737 1560.77 293.319 1565.04 291.306 1568.33C289.235 1571.67 285.012 1573.22 281.184 1572.04L186.925 1544.3C192.626 1551.42 199.048 1558.11 206.191 1564.24C219.687 1575.95 235.323 1585.36 251.995 1592.05C257.765 1593.96 263.408 1595.64 269.376 1596.94C271.458 1597.5 273.273 1598.43 274.96 1599.42C279.172 1600.54 283.523 1601.41 287.804 1602.08C291.632 1602.64 295.529 1602.76 299.485 1602.76Z" fill="#282D87"/>
<path d="M544.406 1657.64C542.975 1656.84 541.486 1656.34 540.125 1655.66C535.192 1655.1 529.805 1655.84 524.093 1656.84C521.173 1657.33 518.38 1657.76 515.46 1658.07C489.121 1660.98 463.689 1651.32 446.889 1643.95C440.467 1641.04 434.173 1638.07 427.879 1634.91C414.383 1628.34 401.539 1622.21 387.788 1618C387.334 1617.88 386.81 1617.81 386.485 1617.69C382.599 1617.44 378.771 1617.44 376.817 1617.32C374.478 1617.32 372.733 1617.32 371.698 1617.2C361.762 1616.58 351.582 1616.2 341.589 1616.45C335.295 1616.58 328.873 1617.2 322.125 1617.88C315.703 1618.55 309.153 1619.24 302.603 1619.49C293.191 1622.46 283.977 1626.48 275.612 1631.5C360.797 1661.1 454.742 1670.09 544.406 1657.64Z" fill="#282D87"/>
<path d="M527.467 1750.85C531.422 1750.3 535.192 1746.14 538.693 1741.81C543.428 1735.92 547.78 1729.67 552.061 1723.54L510.667 1743.73C511.702 1744.34 512.936 1745.03 513.971 1745.59C519.23 1748.74 523.639 1751.47 527.467 1750.85Z" fill="#282D87"/>
<path d="M580.344 1711.34C572.165 1725.46 562.951 1739.15 552.573 1751.96C546.803 1759.09 540.183 1765.83 530.259 1767.44C519.881 1769 511.702 1764.1 504.629 1759.7C500.545 1757.42 496.776 1755.06 493.216 1754.38C486.201 1752.83 478.359 1757.85 474.206 1763.06C468.098 1770.67 465.317 1781.02 461.49 1789.68C456.813 1800.28 453.113 1811.3 450.391 1822.39C449.483 1826.66 448.646 1831.12 450.519 1834.89C452.473 1838.8 456.941 1841.02 461.362 1841.65C465.771 1842.2 470.378 1841.46 474.788 1840.66C476.533 1840.35 479.325 1825.54 479.907 1823.56C481.919 1817.06 484.188 1810.74 486.526 1804.36C488.539 1799.29 490.424 1794.14 492.041 1789.12C493.856 1783.24 498.986 1778.78 505.408 1777.54C511.702 1776.31 518.252 1778.66 522.348 1783.43C525.524 1787.27 535.192 1788.01 542.649 1785.23C552.701 1781.45 561.206 1772.22 567.372 1764.53C573.212 1757.29 577.947 1749.61 584.043 1742.61C589.43 1736.48 591.757 1727.87 593.839 1720.32C593.967 1720.01 594.095 1719.51 594.223 1719.2C596.05 1710.4 588.453 1711.96 580.344 1711.34Z" fill="#282D87"/>
<path d="M203.98 1465.14C177.966 1431.95 157.525 1395.34 143.32 1356.01C140.854 1349.14 138.515 1342.14 136.316 1335.14C131.907 1321.83 127.358 1308.08 121.518 1295.26C114.316 1279.64 105.626 1267.07 95.632 1257.72C94.4685 1278.53 96.0857 1297.11 100.763 1313.96C101.67 1317.43 100.309 1320.96 97.2607 1322.94C94.073 1324.98 90.1174 1324.86 87.0693 1322.88C75.5282 1314.83 63.58 1307.64 51.911 1300.46C49.7704 1299.28 47.6879 1298.04 45.489 1296.68C62.1607 1330.56 79.414 1360.6 97.7145 1387.79C109.523 1402.47 122.169 1416.52 135.863 1429.54C138.911 1432.45 140.4 1436.34 140.726 1440.19C162.656 1445.88 184.005 1454.37 203.98 1465.14Z" fill="#282D87"/>
<path d="M43.8605 1223.47C46.3968 1227.43 48.7236 1231.64 51.3878 1235.67C53.4005 1238.46 54.2381 1241.81 54.1102 1245.15L57.612 1252.52C63.7781 1256.06 69.6184 1259.95 75.005 1263.97C67.024 1237.65 67.6057 1209.1 77.3435 1183.21C81.9506 1170.89 88.5006 1159.55 94.9226 1148.4C98.5524 1141.96 102.252 1135.59 105.498 1128.9C120.68 1098.61 127.358 1064.24 124.764 1030.73C108.476 1045.1 95.5043 1061.45 85.3826 1080.15C83.8236 1082.94 80.9035 1084.62 77.7972 1084.74C74.3535 1084.62 71.5031 1083.13 69.9442 1080.46C58.7871 1061.57 45.3497 1045.28 29.3994 1027.82C27.9684 1042.63 29.2597 1056.31 32.9594 1068.81C34.3904 1073.03 31.924 1077.49 27.6426 1078.91C23.2333 1080.46 18.4284 1078.48 16.5437 1074.33C11.7504 1063.31 6.16607 1052.22 0 1040.88C1.5008 1086.16 5.38659 1127.34 18.4982 1165.13C25.1762 1184.14 34.0646 1202.84 42.6971 1220.87L43.8605 1223.47Z" fill="#282D87"/>
<path d="M255.496 1547.08C242.128 1531.29 230.715 1514.01 221.373 1495.74C195.999 1477.71 166.867 1464.15 136.444 1456.35C150.324 1484.28 170.835 1509.25 195.546 1529.37L255.496 1547.08Z" fill="#282D87"/>
<path d="M1.62871 946.556C6.29399 964.582 13.3093 982.052 22.9773 997.778C23.431 998.645 23.7451 999.633 24.1407 1000.63C26.3395 1000.75 28.55 1001.74 30.0392 1003.48C34.972 1008.68 39.6489 1013.69 44.1862 1018.71C43.7325 1007.13 44.64 994.991 46.9784 982.729C45.1635 974.922 42.8948 967.125 40.8123 959.44L10.7149 852.353C2.53618 884.317 -0.581765 911.938 0.779426 937.893C0.907399 940.737 1.30296 943.646 1.62871 946.556Z" fill="#282D87"/>
<path d="M79.6119 1297.6C79.1582 1295 79.0884 1292.22 78.8324 1289.55C67.7335 1278.78 54.5637 1269.43 39.2532 1261.62C39.1951 1262 39.0555 1262.31 38.9275 1262.62C39.1951 1266.52 39.9048 1270.17 40.9402 1274.01C47.688 1278.22 54.5637 1282.43 61.1835 1286.46C67.2798 1289.98 73.4458 1293.83 79.6119 1297.6Z" fill="#282D87"/>
<path d="M631.138 1676.16C630.952 1675.11 630.684 1674.12 630.684 1673C630.498 1672.69 630.498 1672.32 630.37 1672.01C629.323 1669.1 627.311 1666.31 624.53 1664.32C622.773 1663.09 620.563 1662.1 618.236 1661.41C617.515 1661.36 616.805 1661.23 616.095 1660.86C613.885 1660.3 611.546 1659.99 609.022 1659.99C608.766 1659.99 608.626 1659.99 608.44 1659.99C599.098 1660.11 590.14 1664.32 585.602 1670.64C582.415 1675.11 580.67 1683.04 583.194 1686.56C584.625 1688.36 589.302 1688.91 593.13 1689.48L594.875 1689.72C609.476 1691.7 621.482 1690.28 627.124 1685.69C628.683 1684.34 631.01 1681.79 631.138 1676.16Z" fill="#282D87"/>
<path d="M87.1976 1233.44C89.2103 1233.25 91.1532 1233.38 92.91 1234.5C96.6794 1236.79 100.181 1239.38 103.555 1242.24C98.6805 1226.69 94.7249 1210.71 92.0025 1194.74C88.0469 1207.31 86.4181 1220.44 87.1976 1233.44Z" fill="#282D87"/>
<path d="M1123.18 1233.44C1123.9 1220.32 1122.27 1207.19 1118.44 1194.74C1115.59 1210.71 1111.77 1226.69 1106.76 1242.24C1110.14 1239.38 1113.78 1236.79 1117.41 1234.5C1119.17 1233.38 1121.24 1233.25 1123.18 1233.44Z" fill="#282D87"/>
<path d="M749.422 1821.83C745.908 1812.85 745.722 1804.12 743.709 1795.01C741.627 1785.9 734.042 1774.89 727.747 1768.01C720.93 1760.51 713.147 1756.62 703.351 1754.26C693.811 1751.96 687.389 1754.82 677.663 1755.62C663.911 1756.62 649.369 1749.36 639.712 1736.79C633.151 1728.24 629.195 1718.09 626.147 1708.98C622.901 1708.98 619.725 1709.17 616.549 1709.29C616.025 1709.29 613.303 1721 613.303 1722.11C612.977 1726.2 613.885 1730.9 615.897 1734.56C618.817 1740.13 624.716 1742.37 629.195 1746.64C642.435 1759.27 648.915 1778.23 667.797 1785.23C675.266 1788.01 684.794 1787.27 687.982 1783.43C691.996 1778.66 698.558 1776.31 704.98 1777.54C711.274 1778.78 716.521 1783.24 718.405 1789.12C719.894 1794.14 721.907 1799.29 723.792 1804.36C727.492 1814.4 731.575 1825.23 733.786 1836.57C736.566 1836.14 739.428 1835.76 742.081 1835.33C745.908 1834.65 749.806 1834.09 753.761 1833.54C752.726 1830.13 751.295 1826.54 749.876 1822.94L749.422 1821.83Z" fill="#282D87"/>
<path d="M954.764 1547.08L1014.83 1529.37C1039.62 1509.25 1059.99 1484.28 1073.87 1456.35C1043.45 1464.15 1014.38 1477.71 988.945 1495.74C979.603 1514.01 968.19 1531.29 954.764 1547.08Z" fill="#282D87"/>
<path d="M820.785 287.819C814.619 286.02 809.558 282.799 804.695 279.645C800.146 276.791 795.807 274.003 791.398 273.07C788.024 272.337 783.928 272.637 779.519 273.015C775.564 273.203 771.34 273.57 767.001 273.203C757.717 272.337 748.968 271.771 740.591 271.215C741.115 274.192 741.825 277.291 742.348 280.323C760.253 278.523 778.681 280.878 795.481 287.875C798.529 289.119 801.449 290.54 804.439 291.906C811.315 295.249 817.993 298.348 824.741 299.27C835.118 300.703 845.764 297.104 857.049 293.45C859.841 292.462 862.761 291.596 865.553 290.663C876.641 287.386 886.576 286.142 895.197 287.009C893.452 286.02 891.369 285.087 889.357 284.654C880.014 282.366 869.311 284.532 858.933 286.698C845.822 289.363 833.176 291.473 820.785 287.819Z" fill="#282D87"/>
<mask id="mask1_267_355" style="mask-type:luminance" maskUnits="userSpaceOnUse" x="1083" y="1026" width="128" height="239">
<path d="M1083.88 1026.05H1210.56V1264.88H1083.88V1026.05Z" fill="white"/>
</mask>
<g mask="url(#mask1_267_355)">
<path d="M1193.77 1074.33C1192.02 1078.48 1187.08 1080.46 1182.8 1078.91C1178.39 1077.49 1176 1073.03 1177.36 1068.81C1181.19 1056.31 1182.35 1042.63 1180.93 1027.82C1165.1 1045.28 1151.66 1061.57 1140.44 1080.46C1138.81 1083.13 1135.71 1084.74 1132.66 1084.74C1129.34 1084.62 1126.49 1082.94 1125.06 1080.15C1114.94 1061.45 1101.97 1045.1 1085.55 1030.73C1083.09 1064.24 1089.71 1098.61 1104.89 1128.9C1108.14 1135.59 1111.89 1142.09 1115.46 1148.4C1121.82 1159.55 1128.31 1170.89 1132.97 1183.21C1142.77 1209.1 1143.36 1237.65 1135.31 1263.97C1140.83 1259.95 1146.61 1256.06 1152.71 1252.52L1156.21 1245.15C1156.21 1241.81 1156.99 1238.46 1159 1235.67C1161.72 1231.64 1164.06 1227.43 1166.59 1223.47L1167.75 1220.99C1176.38 1202.72 1185.21 1184.02 1191.76 1165.13C1204.93 1127.34 1208.96 1086.16 1210.45 1040.88C1204.15 1052.22 1198.64 1063.31 1193.77 1074.33Z" fill="#282D87"/>
</g>
<path d="M1123.18 1322.88C1120.26 1324.86 1116.24 1324.98 1113.2 1322.94C1110.14 1320.96 1108.78 1317.43 1109.68 1313.96C1114.23 1297.11 1115.98 1278.53 1114.81 1257.72C1104.76 1267.07 1096 1279.64 1088.93 1295.26C1082.96 1308.08 1078.55 1321.83 1074.07 1335.14C1071.8 1342.14 1069.59 1349.14 1067 1356.01C1052.85 1395.34 1032.48 1431.95 1006.34 1465.14C1026.26 1454.37 1047.66 1445.88 1069.66 1440.19C1069.92 1436.34 1071.53 1432.45 1074.58 1429.54C1088.22 1416.52 1100.79 1402.47 1112.6 1387.79C1131.03 1360.72 1148.29 1330.56 1164.84 1296.68C1162.76 1298.04 1160.62 1299.28 1158.55 1300.46C1146.87 1307.64 1134.73 1314.83 1123.18 1322.88Z" fill="#282D87"/>
<path d="M676.429 1738.9C677.337 1738.9 678.314 1738.71 679.222 1738.47C669.879 1733.45 660.665 1728.37 651.323 1723.11C652.161 1724.46 652.812 1725.76 653.789 1726.88C658.583 1733.14 667.087 1739.58 676.429 1738.9Z" fill="#282D87"/>
<path d="M919.14 1568.33C916.999 1565.04 917.581 1560.77 920.501 1558.11C950.343 1530.48 973.18 1495.74 986.292 1458.02L863.866 1566.65C852.186 1576.94 840.249 1587.59 829.802 1599.05C856.467 1593.41 884.691 1594.71 910.833 1602.76C914.789 1602.76 918.756 1602.64 922.444 1602.08C926.795 1601.41 931.146 1600.54 935.428 1599.42C937.045 1598.43 938.93 1597.5 941 1596.94C946.841 1595.76 952.553 1593.96 958.324 1592.05C974.995 1585.36 990.701 1575.95 1004.25 1564.24C1011.4 1558.11 1017.75 1551.42 1023.33 1544.3L929.262 1572.04C925.306 1573.22 921.211 1571.67 919.14 1568.33Z" fill="#282D87"/>
<path d="M647.949 1689.17C645.483 1691.96 643.272 1695.04 641.527 1698.26C663.842 1710.97 686.679 1723.41 708.807 1735.49C728.329 1746.02 748.247 1756.92 767.978 1768.07C769.467 1768.57 770.887 1769.06 772.26 1769.87C786.593 1778.54 803.52 1784.79 822.856 1788.81C822.856 1774.2 820.657 1757.73 816.83 1741.12C759.218 1716.91 702.513 1699.39 647.949 1689.17Z" fill="#282D87"/>
<path d="M888.321 1617.88C881.573 1617.2 875.151 1616.58 868.857 1616.45C858.805 1616.2 848.684 1616.58 838.62 1617.2C837.713 1617.32 835.839 1617.32 833.501 1617.32C831.558 1617.44 827.789 1617.44 823.961 1617.69C823.507 1617.81 822.984 1617.88 822.67 1618C808.907 1622.21 796.063 1628.34 782.439 1634.91C776.145 1638.07 769.793 1641.04 763.429 1643.95C746.629 1651.44 721.325 1660.98 694.986 1658.07C691.996 1657.76 689.145 1657.33 686.353 1656.84C680.582 1655.84 675.126 1655.1 670.205 1655.66C668.832 1656.34 667.413 1656.84 666.052 1657.64C755.715 1670.09 849.591 1661.1 934.846 1631.5C926.341 1626.48 917.255 1622.46 907.785 1619.36C901.165 1619.24 894.615 1618.55 888.321 1617.88Z" fill="#282D87"/>
<path d="M1131.61 1289.55C1131.36 1292.22 1131.1 1295 1130.78 1297.6C1137 1293.83 1143.17 1289.98 1149.2 1286.46C1155.88 1282.43 1162.63 1278.22 1169.38 1274.01C1170.41 1270.17 1171.26 1266.52 1171.45 1262.62C1171.39 1262.31 1171.26 1262 1171.12 1261.62C1155.88 1269.43 1142.58 1278.78 1131.61 1289.55Z" fill="#282D87"/>
<path d="M549.397 163.762C550.432 163.329 551.607 162.952 552.771 162.518C541.94 120.903 528.77 77.9218 515.728 36.051C514.751 32.8302 513.715 29.6094 512.808 26.3885L542.323 167.227C544.592 165.995 546.931 164.751 549.397 163.762Z" fill="#282D87"/>
<path d="M546.279 237.586C559.646 238.263 570.152 244.838 575.213 251.024C580.413 257.277 580.797 262.542 578.726 263.974C574.119 266.762 561.787 256.977 545.313 256.411C528.897 255.3 515.46 263.974 511.376 260.754C509.306 259.076 510.341 253.934 516.181 248.181C521.754 242.606 532.981 237.03 546.279 237.586ZM570.873 283.11C568.337 284.221 565.033 282.988 561.403 282.555C561.205 282.555 561.077 282.422 560.949 282.422C561.077 282.8 561.263 282.988 561.531 283.477C561.787 284.654 562.241 286.453 560.1 289.919C559.065 291.596 557.122 293.45 554.201 294.572C551.281 295.683 548.163 295.561 545.569 294.939C540.508 293.395 537.786 290.107 536.355 286.453C535.901 285.032 535.773 283.666 535.773 282.555C534.47 282.555 533.307 282.555 532.597 282.422C529.805 281.989 527.141 282.988 524.488 283.11C523.057 282.988 521.754 281.867 521.568 279.645C521.172 277.468 522.208 274.125 525 271.404C527.722 268.617 531.422 266.884 534.738 265.64C538.112 264.285 542.323 263.164 546.93 262.975C556.528 262.297 566.196 266.762 570.024 272.082C574.119 277.535 573.212 282.244 570.873 283.11ZM610.511 254.056C615.374 247.748 624.716 239.818 638.537 236.719C652.486 233.687 665.598 238.019 672.404 243.905C679.547 249.914 680.129 255.922 678.046 257.155C675.72 258.71 671.496 256.722 665.458 255.367C659.63 254.056 651.323 253.257 642.818 255.056C625.367 258.954 610.964 270.971 606.683 267.317C604.67 265.64 605.647 260.498 610.511 254.056ZM672.02 283.11C669.158 283.299 666.505 281 662.806 279.767C662.154 279.579 661.631 279.457 660.991 279.212C660.793 283.299 657.873 289.552 647.949 290.23C644.831 290.23 641.655 288.93 639.712 287.131C637.699 285.343 636.792 283.477 636.14 281.689C635.815 280.445 635.745 279.212 635.815 278.09C633.418 278.213 631.533 278.335 629.846 278.524C626.019 278.901 623.099 280.634 620.434 280.201C617.782 280.012 615.897 274.003 621.737 267.75C624.402 264.718 628.811 262.419 633.29 261.064C637.827 259.821 641.911 259.199 647.17 258.954C652.428 258.832 657.873 259.754 662.678 261.864C667.541 264.096 671.043 267.373 673.055 270.727C677.209 277.902 674.545 283.11 672.02 283.11ZM476.672 333.333C477.126 333.589 477.579 333.766 477.905 334.077C480.558 336.432 481.407 340.208 480.046 343.495C479.778 343.995 479.394 344.673 479.196 345.228C479.196 345.35 479.196 345.472 479.196 345.472C504.954 334.077 534.61 329.868 562.694 333.333C561.985 328.446 563.416 322.938 566.196 318.717C569.838 312.964 573.665 309.743 575.992 306.023C587.161 290.785 586.963 273.448 592.082 272.082C594.677 271.527 598.644 275.68 600.261 284.221C601.878 292.584 600.389 305.279 592.35 316.496C588.452 322.071 583.845 325.781 581.507 328.202C586.835 326.836 592.222 325.781 597.538 325.103C622.645 322.005 648.915 325.848 671.624 336.121C684.922 342.007 695.893 349.815 704.526 358.733C716.067 344.24 723.792 326.525 725.607 307.578C729.05 273.448 714.577 236.908 686.877 209.964C669.298 192.805 648.205 180.666 625.763 175.035C602.146 168.96 577.423 170.448 556.272 179.122C541.939 185.009 528.444 194.36 515.914 207.177C483.734 240.251 469.273 288.686 476.672 333.333Z" fill="#282D87"/>
<path d="M463.363 61.3176C471.868 71.2245 479.651 80.9536 481.989 93.0261C483.281 99.2234 482.571 104.854 481.989 110.552C481.408 115.694 480.826 120.647 481.989 124.801C482.966 127.9 485.165 131.365 487.504 134.963C489.575 138.184 491.785 141.527 493.402 145.303C497.625 155.088 501.709 163.884 505.793 172.425L509.038 173.98C513.262 176.146 517.019 178.378 520.521 180.666C521.627 179.677 522.93 178.689 524.093 177.823C506.84 160.852 495.683 138.24 493.856 114.461C493.67 111.296 493.67 108.208 493.542 104.988C493.344 97.613 493.216 90.6161 490.878 84.3632C487.376 75.0006 479.197 67.5705 470.437 59.7739C468.238 57.8525 466.027 55.8645 463.887 53.8875C455.65 46.0798 449.937 38.2832 446.761 30.4755C446.691 32.6412 446.761 34.6292 447.343 36.6061C449.484 45.5245 456.557 53.6432 463.363 61.3176Z" fill="#282D87"/>
<path d="M803.788 233.432C795.935 233.432 788.477 232.255 781.276 230.9C778.03 230.211 774.586 229.656 771.212 229.223C761.684 227.923 752.016 228.356 742.674 230.033C737.741 232.255 733.006 234.676 728.201 236.908C730.993 242.35 733.46 248.048 735.531 253.812C745.78 247.059 757.333 240.496 770.759 239.563C778.809 239.007 786.395 240.562 793.724 242.05C799.693 243.283 805.673 244.46 810.792 244.272C824.031 244.027 836.166 236.786 849.138 229.1L855.56 225.324C863.738 220.549 872.685 215.973 881.899 213.552C880.142 213.307 878.328 213.185 876.582 213.307C865.228 213.618 853.931 218.327 842.972 222.903C831.419 227.679 818.249 233.132 803.788 233.432Z" fill="#282D87"/>
<path d="M691.216 132.92C683.049 137.685 675.848 143.815 669.682 150.879C666.506 157.321 663.458 163.884 660.34 170.204C666.378 173.358 672.206 176.768 677.791 180.611L677.919 179.989C681.746 166.861 686.097 151.867 697.778 141.272C703.549 136.074 710.494 132.609 717.102 129.322C722.617 126.601 727.748 124.124 731.773 120.781C741.953 112.54 746.63 99.5901 751.493 85.8405L753.959 79.0324C757.135 70.3584 761.091 61.44 766.547 54.0099C765.058 54.8762 763.627 55.8646 762.266 56.9864C753.831 64.1055 748.119 74.5676 742.674 84.7299C736.834 95.503 730.284 107.642 719.185 116.561C713.275 121.458 706.597 124.924 700.105 128.267C697.185 129.699 694.137 131.243 691.216 132.92Z" fill="#282D87"/>
<path d="M411.591 104.421C421.328 111.985 432.555 120.648 439.559 132.665C443.387 139.229 445.527 146.17 447.598 152.978C448.645 156.077 449.611 159.176 450.786 162.208C454.02 170.882 458.755 178.811 464.735 186.053C474.531 192.805 484.187 199.747 493.797 206.499C496.717 202.845 499.824 199.247 503.07 195.837C504.954 193.927 506.839 192.25 508.852 190.573C506.641 189.274 504.373 188.041 502.034 186.797L496.322 184.009C483.478 177.879 469.075 170.759 460.512 157.876C456.359 151.312 454.218 144.193 452.147 137.252C450.518 131.676 448.901 126.345 446.307 121.77C439.885 110.685 427.553 103.744 414.511 96.4361L407.961 92.8487C399.654 88.073 391.289 82.6198 384.739 75.9338C385.449 77.6109 386.1 79.1547 387.066 80.5763C392.65 89.9278 402.249 97.3023 411.591 104.421Z" fill="#282D87"/>
<path d="M720.744 224.203C758.31 206.866 796.516 187.352 833.885 168.471C836.875 166.861 840.051 165.306 843.099 163.762L714.45 215.54C716.648 218.45 718.731 221.293 720.744 224.203Z" fill="#282D87"/>
<path d="M588.127 154.966L586.382 151.19C580.542 138.618 573.98 124.368 576.132 109.197C577.168 101.512 580.216 94.7589 583.136 88.2617C585.602 82.9307 587.929 77.7885 588.848 72.7129C591.245 60.2072 586.242 47.3795 580.995 33.8187L578.459 27.066C575.213 18.3365 572.305 9.10716 571.583 0C571.002 1.67705 570.478 3.34299 570.292 5.02005C568.407 15.671 571.002 27.1882 573.468 38.2834C575.993 50.1116 579.041 63.4836 576.388 77.111C574.957 84.4856 572.037 91.1716 569.245 97.6132C567.954 100.645 566.65 103.677 565.487 106.654C562.369 115.328 560.81 124.435 560.624 133.598C562.951 141.838 565.161 149.946 567.244 158.065C574.12 156.51 581.123 155.521 588.127 154.966Z" fill="#282D87"/>
<path d="M735.857 154.777C732.878 156.199 729.819 158.986 726.712 161.896C723.792 164.562 720.744 167.227 717.102 169.515C708.028 175.346 699.721 180.91 691.81 186.486L690.833 189.829C690.763 190.017 690.763 190.14 690.635 190.395C692.776 192.128 694.858 194.049 696.929 195.97C710.494 180.666 728.527 169.204 748.968 163.762C752.075 162.951 755.39 162.207 758.497 161.53C766.094 159.853 773.295 158.309 779.135 154.966C788.152 149.757 793.992 140.594 800.286 130.932C801.903 128.455 803.393 126.045 805.021 123.568C811.315 114.339 818.389 107.398 825.59 102.877C823.508 103.188 821.367 103.744 819.552 104.61C810.792 108.453 803.916 116.694 797.238 124.557C788.803 134.586 780.427 143.693 768.432 148.402C762.452 150.757 756.426 151.312 750.585 151.867C745.071 152.3 739.94 152.856 735.857 154.777Z" fill="#282D87"/>
<path d="M341.588 188.785C354.758 191.261 367.09 194.049 377.014 202.035C381.947 206.066 385.321 210.897 388.497 215.662C391.487 219.993 394.396 224.081 398.037 226.691C400.829 228.545 404.785 229.911 408.996 231.211C412.696 232.444 416.721 233.687 420.421 235.664C427.75 239.441 434.754 242.917 441.572 246.138L446.435 245.394C455.521 243.905 463.688 243.716 471.018 244.394C471.285 243.839 471.413 243.283 471.739 242.728C444.876 241.362 418.92 230.211 400.375 211.453C398.165 209.154 396.024 206.744 393.814 204.389C388.823 198.692 384.018 193.361 378.119 190.018C369.231 184.82 357.876 184.131 345.998 183.332C343.019 183.143 340.029 182.898 337.051 182.71C325.498 181.599 315.958 179 308.373 174.913C309.536 176.579 311.037 178.001 312.654 179.244C320.379 184.942 331.083 186.919 341.588 188.785Z" fill="#282D87"/>
<path d="M163.18 650.262C166.03 650.817 168.625 652.983 169.602 655.837C171.801 662.213 173.429 668.532 174.593 674.785C219.687 646.73 257.509 609.202 284.558 565.599C253.158 568.442 224.026 585.168 205.923 611.301C203.597 614.644 198.92 616.01 195.092 614.333C191.265 612.667 189.194 608.514 190.229 604.615C196.651 580.27 195.546 554.448 187.379 530.603C173.429 547.329 164.541 570.919 161.027 600.961C159.538 613.778 158.957 627.039 158.375 639.922C158.247 643.51 158.049 647.286 157.793 650.94C159.41 650.262 161.295 649.951 163.18 650.262Z" fill="#282D87"/>
<path d="M213.905 577.672C235.125 551.228 249.912 519.575 263.408 490.776L289.561 435.1C266.851 456.591 246.736 480.747 229.936 506.758C227.144 513.255 224.748 519.83 222.863 526.516C221.374 531.592 217.279 535.368 212.357 537.289C211.182 539.522 210.019 541.632 208.983 543.853C211.31 555.559 212.218 567.576 211.636 579.471C212.357 578.782 213.195 578.294 213.905 577.672Z" fill="#282D87"/>
<path d="M140.726 670.076C140.656 660.98 139.237 651.929 136.317 643.266C131.512 642.399 127.231 639.923 124.508 635.836C123.333 634.036 121.972 632.615 120.227 631.249C118.214 635.025 116.132 638.923 114.061 642.833C109.128 652.428 104.009 662.213 99.332 670.076C98.6805 672.686 98.1686 675.218 97.7148 677.762C106.929 687.669 114.386 698.697 119.901 710.648C124.706 696.276 131.907 682.593 140.726 670.076Z" fill="#282D87"/>
<path d="M75.3308 768.989C77.4017 772.643 77.9252 776.852 76.948 780.639C77.076 781.128 77.3435 781.561 77.5297 781.994C79.6122 786.581 81.6249 791.223 83.5678 795.81C93.5615 813.269 99.5879 831.239 102.252 850.564C103.416 849.698 104.463 848.821 105.626 847.899L113.351 833.527C115.096 830.184 118.866 828.452 122.693 829.129C124.31 829.44 125.741 830.184 126.905 831.239C162.331 801.563 186.471 760.381 194.766 715.412C185.622 721.554 177.385 729.35 170.114 738.702C167.589 741.923 163.04 743.044 159.213 741.123C155.455 739.39 153.442 735.237 154.745 731.338C160.446 712.88 161.423 695.043 157.34 676.34C141.436 697.397 131.64 722.786 129.825 748.175C129.441 752.518 125.741 755.861 121.262 755.928C116.725 755.928 112.897 752.707 112.444 748.364C109.256 719.066 93.0379 692.377 67.5476 673.674C61.1256 691.011 58.8453 709.848 60.6719 728.362C63.5804 743.044 68.4551 756.849 75.3308 768.989Z" fill="#282D87"/>
<path d="M646.518 164.195C664.946 126.601 682.467 86.8402 699.523 48.0014C700.884 44.9694 702.315 41.8708 703.548 38.8387L636.071 160.542C639.572 161.652 643.086 162.896 646.518 164.195Z" fill="#282D87"/>
<path d="M485.037 218.45C447.016 190.95 405.622 163.762 365.275 137.496C362.355 135.574 359.563 133.72 356.643 131.798L479.068 228.112C480.953 224.769 482.966 221.67 485.037 218.45Z" fill="#282D87"/>
<path d="M324.661 245.704C337.249 246.004 351.582 246.626 364.822 252.268C372.024 255.3 378.12 259.631 384.018 263.719C386.683 265.64 389.533 267.628 392.325 269.416C400.376 274.436 409.264 277.968 418.467 280.445C432.556 280.2 446.435 280.134 460.187 280.2C461.49 273.015 463.363 265.762 465.643 258.71C460.64 258.521 455.196 258.71 448.774 259.754L442.48 260.753C428.333 263.108 412.371 265.762 397.456 260.32C389.859 257.41 383.693 252.945 377.724 248.614C372.989 245.016 368.254 241.795 363.391 239.562C351.257 234.365 337.052 235.908 321.869 237.585L314.412 238.33C304.872 239.385 294.68 239.818 285.28 238.263C286.769 239.129 288.386 239.94 290.015 240.562C300.392 244.893 312.783 245.271 324.661 245.704Z" fill="#282D87"/>
<path d="M85.8364 885.116C86.2902 879.541 86.5577 874.099 86.2902 868.523C85.5107 842.323 78.4371 819.411 64.3599 797.176C46.9088 816.49 36.0076 841.457 32.9595 867.035L56.123 949.222C63.976 926.987 74.8771 905.685 85.8364 885.116Z" fill="#282D87"/>
</svg>
