<svg width="800" height="726" viewBox="0 0 800 726" fill="none" xmlns="http://www.w3.org/2000/svg">
<path d="M562.659 338.019L578.528 321.978C578.528 321.978 602.917 301.031 630.725 310.528C679.137 327.056 735.07 309.161 773.864 270.319C784.9 259.283 798.303 237.14 798.303 237.14C799.84 235.04 800.378 232.38 799.744 229.84L796.74 217.487C796.18 215.169 794.689 213.19 792.639 211.97C790.587 210.773 788.122 210.456 785.851 211.115L690.564 237.63C687.023 238.606 683.239 237.287 681.09 234.334L637.317 174.031C635.975 172.2 635.412 169.905 635.73 167.683L644.544 103.62C645.008 100.13 647.498 97.2967 650.892 96.3452L751.526 68.342C756.067 67.0717 758.826 62.3842 757.703 57.7701L753.723 41.5842C753.186 39.2889 751.722 37.3358 749.719 36.1155C749.719 36.1155 741.833 30.8905 736.095 27.9373C678.942 -1.57985 606.97 7.5764 559.045 55.5248C523.645 90.9248 509.778 139.412 516.272 185.456C521.276 220.856 518.933 239.68 503.65 255.842C502.258 257.283 497.864 261.676 491.076 268.342L562.659 338.019Z" fill="white"/>
<path d="M330.286 424.591C223.475 528.081 106.97 640.68 106.97 640.68C102.991 644.489 100.72 649.737 100.647 655.231C100.573 660.7 102.747 665.998 106.605 669.88L156.508 719.783C160.414 723.664 165.687 725.812 171.181 725.741C176.675 725.692 181.898 723.397 185.683 719.442L403.383 499.203L330.286 424.591Z" fill="white"/>
<path d="M783.484 668.267C787.366 664.386 789.514 659.112 789.442 653.619C789.394 648.125 787.098 642.901 783.144 639.092L355.336 222.759L286.659 291.461L704.383 717.828C708.192 721.808 713.416 724.078 718.909 724.151C724.403 724.225 729.677 722.051 733.583 718.17L783.484 668.267Z" fill="white"/>
<path d="M397.181 13.9702C345.667 -6.12195 262.367 -9.0282 214.125 39.1906C176.136 77.1796 120.57 132.77 120.57 132.77C100.77 152.545 119.155 172.175 104.53 186.775C89.9062 201.398 66.5406 186.775 53.3828 199.934L5.14058 248.198C-1.72036 255.034 -1.72036 266.167 5.14058 273.028L72.3531 340.241C79.214 347.101 90.3468 347.101 97.2062 340.241L145.448 291.998C158.633 278.839 143.983 255.475 158.633 240.875C178.334 221.148 199.844 224.494 212.27 236.895L237.1 261.725L264.005 268.805L332.681 200.128L324.77 174.053C302.87 152.13 299.745 126.762 313.467 113.042C334.708 91.8015 369.791 61.114 402.651 47.9546C423.597 39.5812 417.273 18.7312 397.181 13.9702ZM304.017 124.687C303.919 124.761 313.172 113.311 313.344 113.164L304.017 124.687Z" fill="white"/>
</svg>
