<svg width="800" height="800" viewBox="0 0 800 800" fill="none" xmlns="http://www.w3.org/2000/svg">
<path d="M74.5714 57.1429H715.457C756.629 57.1429 790.029 90.5143 790.029 131.714C790.029 172.914 756.657 206.286 715.457 206.286H74.5714C33.4 206.286 0 172.914 0 131.714C0 90.5143 33.3714 57.1429 74.5714 57.1429Z" fill="white"/>
<path d="M74.5714 325.429H715.457C756.629 325.429 790.029 358.8 790.029 400C790.029 441.2 756.657 474.571 715.457 474.571H74.5714C33.4 474.571 0 441.2 0 400C0 358.8 33.3714 325.429 74.5714 325.429Z" fill="white"/>
<path d="M74.5714 593.743H715.457C756.629 593.743 790.029 627.114 790.029 668.314C790.029 709.514 756.657 742.886 715.457 742.886H74.5714C33.4 742.886 0 709.514 0 668.314C0 627.114 33.3714 593.743 74.5714 593.743Z" fill="white"/>
</svg>
