<svg width="24" height="24" viewBox="0 0 24 24" fill="none" xmlns="http://www.w3.org/2000/svg">
<path d="M12.0001 0L1.40112 6.11892C1.40112 8.34436 1.61234 10.2878 1.96629 12C4.15362 22.5807 12.0001 24 12.0001 24C12.0001 24 19.8464 22.5807 22.0338 12C22.3878 10.2878 22.599 8.34441 22.599 6.11892L12.0001 0ZM12.0056 21.8776C12.0039 21.8771 12.0017 21.8763 12.0001 21.8758V19.6412V12H6.59862H4.27137C3.95872 10.606 3.75064 9.02316 3.6904 7.22203L12 2.42475H12.0001V4.84959V12H17.4034H19.7295C18.0767 19.3783 13.4685 21.4113 12.0056 21.8776Z" fill="white"/>
</svg>
