<svg width="50" height="50" viewBox="0 0 50 50" fill="none" xmlns="http://www.w3.org/2000/svg">
<path d="M25.0001 0L2.91895 12.7478C2.91895 17.3841 3.35898 21.4329 4.09639 25C8.65332 47.0431 25.0001 50 25.0001 50C25.0001 50 41.3467 47.0431 45.9037 25C46.6411 21.4329 47.0812 17.3842 47.0812 12.7478L25.0001 0ZM25.0115 45.5784C25.0081 45.5772 25.0035 45.5757 25.0001 45.5746V40.9191V25H13.7471H8.89863C8.24727 22.0959 7.81377 18.7982 7.68828 15.0459L24.9999 5.05156H25.0001V10.1033V25H36.2569H41.1031C37.6598 40.3715 28.0593 44.6068 25.0115 45.5784Z" fill="#282D86"/>
</svg>
