<svg width="636" height="636" viewBox="0 0 636 636" fill="none" xmlns="http://www.w3.org/2000/svg">
<path fill-rule="evenodd" clip-rule="evenodd" d="M25.2666 280.733C17.5261 288.472 11.3858 297.659 7.19655 307.771C3.00728 317.883 0.851074 328.721 0.851074 339.667C0.851074 350.612 3.00728 361.45 7.19655 371.562C11.3858 381.674 17.5261 390.861 25.2666 398.6L237.4 610.733C245.138 618.474 254.326 624.614 264.438 628.803C274.55 632.993 285.388 635.149 296.333 635.149C307.279 635.149 318.117 632.993 328.229 628.803C338.341 624.614 347.528 618.474 355.267 610.733L611.6 354.4C619.338 346.66 625.475 337.472 629.662 327.36C633.848 317.248 636.002 306.411 636 295.467V50C636 36.7392 630.732 24.0215 621.355 14.6447C611.978 5.26784 599.261 1.44835e-06 586 1.44835e-06H340.5C329.556 -0.00203892 318.718 2.15172 308.606 6.3383C298.495 10.5249 289.306 16.6623 281.567 24.4L25.2666 280.733ZM435.6 133.333C398.6 133.333 369.333 161.067 369.333 199.6C369.333 238.167 398.6 266.667 435.6 266.667C473.367 266.667 502.667 238.167 502.667 199.6C502.667 161.067 473.333 133.333 435.6 133.333Z" fill="white"/>
</svg>
