<svg width="636" height="636" viewBox="0 0 636 636" fill="none" xmlns="http://www.w3.org/2000/svg">
<path fill-rule="evenodd" clip-rule="evenodd" d="M24.4155 280.733C16.675 288.472 10.5347 297.659 6.34548 307.771C2.15621 317.883 0 328.721 0 339.667C0 350.612 2.15621 361.45 6.34548 371.562C10.5347 381.674 16.675 390.861 24.4155 398.6L236.549 610.733C244.287 618.474 253.475 624.614 263.587 628.803C273.699 632.993 284.537 635.149 295.482 635.149C306.428 635.149 317.266 632.993 327.378 628.803C337.49 624.614 346.677 618.474 354.416 610.733L610.749 354.4C618.487 346.66 624.624 337.472 628.811 327.36C632.997 317.248 635.151 306.411 635.149 295.467V50C635.149 36.7392 629.881 24.0215 620.504 14.6447C611.127 5.26784 598.41 1.44835e-06 585.149 1.44835e-06H339.649C328.705 -0.00203892 317.867 2.15172 307.755 6.3383C297.644 10.5249 288.455 16.6623 280.716 24.4L24.4155 280.733ZM434.749 133.333C397.749 133.333 368.482 161.067 368.482 199.6C368.482 238.167 397.749 266.667 434.749 266.667C472.516 266.667 501.816 238.167 501.816 199.6C501.816 161.067 472.482 133.333 434.749 133.333Z" fill="#282D86"/>
</svg>
