<svg width="800" height="800" viewBox="0 0 800 800" fill="none" xmlns="http://www.w3.org/2000/svg">
<g clip-path="url(#clip0_242_5)">
<path d="M733.448 448.34L540.138 378.882L459.35 277.417C452.323 268.828 443.471 261.911 433.438 257.168C423.404 252.426 412.44 249.977 401.343 250H201.44C189.215 249.995 177.175 252.98 166.369 258.695C155.562 264.409 146.317 272.681 139.44 282.787L71.655 382.372C57.5303 403.099 49.9834 427.603 50 452.685V650C50 656.63 52.6339 662.989 57.3224 667.678C62.0108 672.366 68.3696 675 75 675H128.553C134.004 696.444 146.446 715.459 163.913 729.041C181.379 742.624 202.874 749.997 225 749.997C247.126 749.997 268.621 742.624 286.088 729.041C303.554 715.459 315.996 696.444 321.448 675H478.553C484.004 696.444 496.446 715.459 513.913 729.041C531.379 742.624 552.874 749.997 575 749.997C597.126 749.997 618.621 742.624 636.088 729.041C653.554 715.459 665.996 696.444 671.448 675H725C731.63 675 737.989 672.366 742.678 667.678C747.366 662.989 750 656.63 750 650V471.875C750.001 466.725 748.412 461.7 745.449 457.487C742.486 453.275 738.295 450.08 733.448 448.34ZM225 700C215.111 700 205.444 697.067 197.222 691.573C188.999 686.079 182.59 678.27 178.806 669.134C175.022 659.998 174.031 649.944 175.961 640.245C177.89 630.546 182.652 621.637 189.645 614.645C196.637 607.652 205.546 602.89 215.246 600.961C224.945 599.031 234.998 600.022 244.134 603.806C253.27 607.59 261.079 613.999 266.574 622.221C272.068 630.444 275 640.111 275 650C274.982 663.255 269.709 675.963 260.336 685.336C250.963 694.708 238.255 699.982 225 700ZM575 700C565.111 700 555.444 697.067 547.222 691.573C538.999 686.079 532.59 678.27 528.806 669.134C525.022 659.998 524.032 649.944 525.961 640.245C527.89 630.546 532.652 621.637 539.645 614.645C546.637 607.652 555.546 602.89 565.246 600.961C574.945 599.031 584.998 600.022 594.134 603.806C603.271 607.59 611.079 613.999 616.574 622.221C622.068 630.444 625 640.111 625 650C624.984 663.256 619.71 675.964 610.337 685.337C600.964 694.71 588.256 699.983 575 700ZM700 625H671.448C665.996 603.556 653.554 584.54 636.088 570.958C618.621 557.376 597.126 550.003 575 550.003C552.874 550.003 531.379 557.376 513.913 570.958C496.446 584.54 484.004 603.556 478.553 625H321.448C315.996 603.556 303.554 584.54 286.088 570.958C268.621 557.376 247.126 550.003 225 550.003C202.874 550.003 181.379 557.376 163.913 570.958C146.446 584.54 134.004 603.556 128.553 625H100V452.685C99.9943 437.628 104.524 422.918 113 410.472L180.775 310.937C183.066 307.567 186.147 304.808 189.749 302.902C193.351 300.995 197.365 299.999 201.44 300H401.343C404.984 299.984 408.585 300.77 411.888 302.302C415.192 303.833 418.119 306.073 420.46 308.862L505.445 415.575C508.337 419.208 512.183 421.964 516.553 423.535L700 489.452V625Z" fill="white"/>
<path d="M625 275H575C574.986 261.743 569.714 249.034 560.34 239.66C550.966 230.286 538.257 225.014 525 225V175C551.513 175.03 576.931 185.575 595.678 204.322C614.425 223.069 624.97 248.487 625 275Z" fill="white"/>
<path d="M725 275H675C674.956 235.231 659.138 197.104 631.017 168.983C602.896 140.862 564.769 125.044 525 125V75C578.025 75.0609 628.86 96.1518 666.354 133.646C703.848 171.14 724.939 221.975 725 275Z" fill="white"/>
</g>
<defs>
<clipPath id="clip0_242_5">
<rect width="800" height="800" fill="white"/>
</clipPath>
</defs>
</svg>
